<?xml version="1.0" standalone="no"?>
<!DOCTYPE svg PUBLIC "-//W3C//DTD SVG 20010904//EN"
 "http://www.w3.org/TR/2001/REC-SVG-20010904/DTD/svg10.dtd">
<svg version="1.0" xmlns="http://www.w3.org/2000/svg"
 width="846.000000pt" height="846.000000pt" viewBox="0 0 846.000000 846.000000"
 preserveAspectRatio="xMidYMid meet">
<metadata>
Created by potrace 1.14, written by Peter Selinger 2001-2017
</metadata>
<g transform="translate(0.000000,846.000000) scale(0.100000,-0.100000)"
fill="#000000" stroke="none">
<path d="M3660 8438 c-19 -12 -52 -31 -72 -43 -21 -11 -115 -65 -210 -120 -94
-55 -188 -109 -207 -120 -20 -11 -68 -40 -108 -63 -39 -23 -76 -42 -81 -42 -6
0 -12 -4 -14 -8 -1 -4 -25 -21 -52 -36 -59 -35 -144 -119 -179 -178 -47 -81
-70 -166 -73 -266 -4 -157 52 -296 167 -412 113 -116 221 -162 379 -163 133 0
193 19 350 112 41 24 90 52 108 62 17 11 48 28 67 39 19 11 51 29 70 40 19 11
52 30 73 42 20 12 57 33 82 47 25 14 47 29 48 33 2 4 8 8 13 8 8 0 122 64 354
200 103 60 143 83 200 113 22 12 42 24 45 27 5 5 24 16 99 57 25 14 51 29 56
33 6 5 37 23 70 41 33 18 62 35 65 38 3 4 24 15 47 26 24 11 43 23 43 28 0 4
6 7 14 7 7 0 19 7 26 15 7 8 16 12 21 9 5 -3 9 -2 9 3 0 4 10 13 23 19 12 6
66 36 121 67 54 32 102 57 106 57 5 0 10 3 12 8 2 4 39 28 83 52 120 67 213
167 263 282 2 5 -443 8 -990 8 l-993 0 -35 -22z"/>
<path d="M7165 8333 c-86 -19 -194 -75 -262 -137 -60 -55 -136 -180 -147 -241
-3 -17 -8 -41 -11 -55 -10 -41 -7 -152 4 -202 6 -26 22 -73 36 -104 60 -135
159 -245 270 -299 81 -39 245 -75 245 -53 0 5 9 4 19 -2 11 -5 22 -7 25 -2 2
4 19 9 36 10 17 1 50 9 73 18 23 8 48 16 54 18 30 6 148 93 188 139 40 46 113
167 101 167 -3 0 2 16 10 35 31 74 22 250 -16 340 -7 17 -14 35 -16 42 -1 6
-16 32 -33 57 -17 24 -31 48 -31 53 0 15 -150 153 -166 153 -7 0 -14 5 -14 11
0 5 -4 8 -9 4 -5 -3 -12 -1 -16 5 -11 18 -140 52 -210 54 -38 2 -97 -3 -130
-11z"/>
<path d="M5478 7364 c-55 -13 -140 -53 -243 -114 -27 -16 -59 -34 -70 -40 -11
-5 -27 -14 -35 -20 -17 -11 -221 -130 -290 -168 -25 -13 -70 -39 -100 -57
-129 -76 -228 -134 -270 -157 -48 -27 -285 -164 -341 -197 -19 -11 -68 -39
-109 -63 -41 -23 -83 -47 -92 -53 -22 -13 -83 -47 -135 -76 -24 -12 -43 -26
-43 -31 0 -4 -5 -8 -12 -8 -9 0 -73 -36 -193 -107 -11 -7 -27 -15 -35 -19 -8
-4 -46 -26 -85 -49 -73 -44 -272 -159 -315 -182 -14 -8 -43 -25 -65 -39 -22
-13 -53 -31 -70 -39 -16 -8 -55 -31 -85 -50 -30 -19 -61 -34 -67 -35 -7 0 -13
-4 -13 -9 0 -5 -9 -13 -20 -16 -12 -4 -67 -34 -123 -67 -56 -34 -117 -69 -135
-80 -18 -10 -93 -53 -165 -95 -73 -42 -150 -87 -172 -100 -22 -12 -51 -28 -65
-35 -14 -7 -27 -15 -30 -18 -3 -3 -14 -10 -25 -16 -11 -6 -96 -55 -190 -109
-93 -54 -192 -111 -220 -127 -27 -16 -57 -33 -65 -38 -95 -56 -172 -100 -175
-100 -8 0 -110 -64 -116 -73 -3 -5 -9 -8 -13 -8 -7 1 -88 -44 -318 -177 -21
-12 -53 -31 -72 -41 -19 -11 -53 -31 -75 -45 -22 -15 -43 -26 -46 -26 -10 0
-38 -24 -104 -90 -100 -100 -153 -229 -152 -369 1 -109 9 -144 64 -261 15 -33
76 -117 113 -156 40 -42 153 -109 211 -123 26 -7 57 -16 68 -20 24 -9 154 -7
210 4 36 6 126 42 165 65 103 61 218 126 228 128 6 2 12 8 12 13 0 5 5 9 10 9
8 0 331 183 415 235 11 7 22 12 25 11 3 0 19 9 35 20 17 12 75 47 130 79 428
247 477 275 525 301 19 11 38 24 42 29 5 7 8 7 8 0 0 -6 3 -5 8 1 4 6 27 22
52 36 52 29 75 42 230 132 63 36 122 70 130 75 12 8 181 105 255 147 11 6 61
35 110 64 50 29 106 61 125 72 19 11 150 87 290 168 305 176 572 330 620 357
94 54 266 156 278 165 6 6 12 7 12 4 0 -4 19 6 43 22 23 16 84 52 135 81 52
29 139 79 194 112 55 32 101 59 103 59 2 0 28 14 57 32 53 31 202 117 288 166
25 14 62 36 82 49 21 12 40 23 42 23 11 0 123 81 149 107 45 46 87 97 87 107
0 5 6 17 13 25 8 9 25 50 38 91 90 283 -75 604 -360 703 -71 25 -215 30 -293
11z"/>
<path d="M1445 7096 c-120 -29 -256 -124 -322 -226 -28 -43 -55 -101 -55 -117
0 -4 -4 -15 -9 -24 -27 -51 -29 -193 -5 -294 1 -5 10 -27 19 -49 9 -21 17 -41
17 -44 0 -17 90 -144 129 -182 84 -82 156 -120 267 -143 117 -24 238 -7 353
51 50 25 191 146 191 164 0 5 11 25 25 46 72 109 91 295 44 427 -49 135 -179
302 -263 336 -17 7 -33 16 -36 19 -3 4 -36 16 -75 28 -79 23 -200 27 -280 8z"/>
<path d="M7880 6756 c-30 -20 -60 -36 -67 -36 -6 0 -13 -3 -15 -7 -1 -5 -15
-15 -30 -23 -16 -8 -115 -65 -220 -126 -106 -61 -209 -120 -228 -130 -19 -11
-37 -21 -40 -24 -3 -3 -16 -11 -30 -19 -14 -8 -52 -30 -85 -49 -33 -19 -85
-48 -115 -65 -30 -17 -56 -34 -58 -39 -2 -4 -8 -8 -13 -8 -5 0 -69 -34 -142
-76 -376 -217 -417 -247 -482 -349 -40 -62 -75 -155 -81 -215 -10 -91 -10
-110 -2 -110 4 0 5 -6 2 -14 -7 -19 23 -131 53 -196 70 -151 217 -271 378
-310 59 -14 230 -14 230 0 0 1 9 3 20 4 33 5 106 37 180 81 39 22 81 46 95 53
14 7 45 25 70 40 25 16 65 39 90 52 25 14 52 29 60 36 8 6 40 24 70 40 30 16
57 32 60 35 3 3 30 19 60 36 61 34 207 118 230 133 8 6 25 14 38 20 12 5 25
15 27 22 3 7 4 298 3 646 l-3 633 -55 -35z"/>
<path d="M4984 5064 c-65 -21 -122 -51 -429 -229 -55 -32 -114 -66 -131 -76
-17 -9 -42 -23 -55 -31 -13 -7 -26 -15 -29 -18 -6 -6 -86 -50 -117 -65 -13 -5
-23 -13 -23 -17 0 -5 -5 -8 -12 -8 -6 0 -32 -13 -57 -29 -47 -29 -501 -291
-556 -320 -16 -9 -32 -19 -35 -22 -3 -3 -30 -19 -60 -36 -59 -33 -368 -210
-570 -328 -128 -74 -171 -99 -250 -144 -25 -14 -46 -29 -48 -33 -2 -4 -8 -8
-14 -8 -6 0 -36 -15 -67 -34 -31 -18 -76 -45 -101 -59 -25 -13 -112 -64 -195
-112 -178 -104 -209 -122 -255 -147 -19 -11 -48 -27 -65 -37 -77 -47 -158 -91
-166 -91 -5 0 -9 -4 -9 -9 0 -5 -8 -11 -17 -14 -17 -6 -82 -42 -132 -74 -12
-8 -48 -29 -80 -46 -31 -16 -58 -33 -61 -36 -3 -4 -24 -15 -47 -26 -24 -11
-43 -23 -43 -27 0 -5 -5 -8 -10 -8 -20 0 -124 -72 -165 -114 -173 -179 -207
-440 -83 -649 15 -26 28 -50 28 -53 0 -13 128 -144 140 -144 5 0 15 -6 22 -13
16 -16 91 -51 143 -67 60 -18 201 -21 268 -5 59 14 247 102 247 116 0 4 6 9
13 11 11 2 182 100 409 231 147 86 303 175 348 200 30 16 66 38 80 47 14 9 50
31 80 47 30 17 111 63 180 104 69 40 141 81 160 92 19 10 49 27 65 37 17 11
44 26 60 35 17 8 44 24 60 34 17 11 46 28 65 39 19 11 53 30 75 42 22 13 54
30 70 38 17 9 32 18 35 22 4 5 117 71 160 93 8 4 38 21 65 38 28 16 58 33 68
36 9 3 17 9 17 14 0 5 4 9 9 9 7 0 173 93 196 110 6 4 35 21 65 37 30 17 96
54 145 83 50 29 110 64 135 78 25 14 97 56 161 93 64 38 122 69 128 69 6 0 11
4 11 9 0 5 8 11 18 15 9 3 31 15 47 26 17 11 37 23 45 27 8 3 56 30 105 58 50
28 101 58 115 66 14 8 28 19 32 24 4 6 8 6 8 1 0 -5 8 -2 18 6 9 8 42 28 72
44 30 16 57 32 60 35 3 3 34 21 70 40 63 33 210 167 210 191 0 6 6 19 14 27
16 18 56 129 63 176 28 172 -36 364 -167 494 -53 53 -155 121 -190 127 -3 0
-12 4 -20 7 -76 33 -230 33 -326 1z"/>
<path d="M7865 4701 c-33 -21 -80 -48 -105 -62 -25 -13 -47 -26 -50 -29 -3 -3
-14 -10 -25 -16 -109 -60 -142 -78 -155 -88 -15 -11 -25 -17 -109 -64 -25 -14
-140 -80 -256 -147 -115 -67 -234 -135 -262 -151 -29 -16 -53 -32 -53 -36 0
-5 -8 -8 -19 -8 -10 0 -24 -7 -31 -15 -7 -8 -16 -15 -20 -15 -4 0 -95 -52
-204 -115 -108 -63 -201 -115 -207 -115 -5 0 -9 -4 -9 -10 0 -5 -4 -10 -10
-10 -5 0 -73 -38 -152 -83 -79 -46 -188 -109 -243 -141 -55 -31 -107 -61 -115
-67 -55 -35 -294 -169 -301 -169 -5 0 -9 -4 -9 -9 0 -5 -12 -14 -27 -20 -16
-6 -46 -21 -68 -35 -46 -28 -146 -85 -445 -257 -118 -67 -216 -127 -218 -131
-2 -4 -9 -8 -15 -8 -6 0 -48 -22 -94 -50 -46 -27 -88 -50 -93 -50 -6 0 -10 -4
-10 -8 0 -4 -16 -14 -35 -21 -19 -7 -35 -16 -35 -21 0 -5 -9 -11 -19 -15 -10
-3 -107 -57 -215 -120 -109 -63 -201 -115 -207 -115 -5 0 -9 -3 -9 -7 0 -5
-19 -17 -43 -28 -23 -11 -44 -23 -47 -26 -3 -4 -29 -19 -58 -35 -29 -16 -61
-34 -70 -39 -57 -34 -227 -132 -250 -145 -15 -8 -45 -26 -67 -39 -22 -14 -42
-25 -45 -26 -3 0 -16 -8 -30 -17 -31 -20 -206 -120 -280 -161 -30 -16 -60 -33
-65 -38 -9 -7 -335 -195 -445 -257 -80 -44 -124 -78 -170 -130 -60 -66 -61
-68 -91 -132 -123 -257 -16 -584 236 -725 133 -75 270 -90 414 -49 47 14 91
30 98 35 7 6 27 19 45 28 45 24 107 59 265 152 75 43 137 79 140 79 3 0 17 8
31 19 23 15 64 39 167 95 11 6 22 13 25 16 9 9 84 51 113 63 15 6 27 15 27 19
0 4 7 8 15 8 8 0 15 3 15 8 0 4 14 13 31 21 32 14 206 114 224 128 6 5 19 13
31 18 11 6 86 48 167 95 81 47 159 92 174 100 16 8 52 30 81 48 29 17 55 32
58 32 3 0 18 8 32 19 15 10 48 30 75 45 26 14 68 38 95 53 26 14 56 31 67 37
11 6 22 14 25 17 3 3 30 19 60 35 30 16 57 31 60 35 3 3 19 12 35 21 17 8 102
57 190 108 88 51 176 101 195 112 19 11 55 31 80 46 25 15 93 54 150 87 58 32
107 62 110 65 3 3 23 15 45 26 22 12 67 37 100 56 150 88 635 367 674 389 25
13 50 28 55 32 26 19 599 347 607 347 5 0 9 4 9 9 0 5 8 11 18 14 16 6 75 38
152 85 19 12 42 25 50 29 8 4 43 24 78 45 34 21 67 38 72 38 6 0 10 5 10 11 0
5 5 7 10 4 6 -3 10 -2 10 3 0 5 8 12 18 15 9 3 40 19 67 35 l50 29 3 641 c1
353 -1 642 -5 641 -5 0 -35 -18 -68 -38z"/>
<path d="M7917 2647 c-10 -10 -34 -47 -53 -83 -82 -148 -92 -321 -26 -464 14
-30 26 -57 26 -60 1 -3 17 -29 36 -58 l35 -53 3 186 c1 102 1 267 0 368 -3
175 -4 181 -21 164z"/>
<path d="M6034 1541 c-2 -2 -17 -5 -32 -6 -15 -1 -34 -5 -42 -8 -8 -3 -32 -11
-54 -17 -21 -7 -77 -34 -123 -61 -47 -27 -89 -49 -94 -49 -5 0 -9 -4 -9 -10 0
-5 -4 -10 -9 -10 -7 0 -311 -171 -391 -220 -8 -5 -64 -37 -123 -71 -165 -94
-238 -159 -301 -270 -23 -39 -20 -34 -44 -124 -17 -63 -22 -185 -9 -235 15
-57 22 -80 40 -120 12 -25 26 -48 31 -52 6 -4 7 -8 3 -8 -15 0 82 -118 126
-153 23 -19 67 -48 97 -64 49 -26 72 -35 130 -50 8 -2 51 -6 95 -8 85 -5 192
14 232 41 13 8 23 12 23 10 0 -3 55 27 123 66 209 122 222 129 240 135 9 3 17
9 17 14 0 5 5 9 10 9 6 0 43 20 83 44 77 46 185 108 245 141 240 131 343 288
344 525 1 58 -29 187 -48 210 -7 8 -13 20 -13 25 0 6 -12 27 -26 48 -14 22
-25 42 -25 45 0 4 -28 34 -62 67 -103 98 -230 153 -366 158 -35 2 -65 1 -68
-2z"/>
</g>
</svg>
